<svg width="291" height="503" viewBox="0 0 291 503" fill="none" xmlns="http://www.w3.org/2000/svg">
<path d="M0 29.874C0 20.91 2.73893 13.6907 8.23531 8.2163C13.7224 2.7418 20.9584 0 29.9432 0H129.822L113.138 25.6089H42.7773C39.4925 25.6089 36.9016 26.569 34.9677 28.4892C33.043 30.4094 32.0807 33.0036 32.0807 36.2808V69.3586H45.9789C47.4039 69.3586 48.6161 68.8596 49.6154 67.8626L66.7245 48.873C67.585 47.7375 68.862 47.1651 70.5738 47.1651H113.351V72.7736H63.9486C62.2367 72.7736 60.9598 73.3466 60.0992 74.4816L42.9902 93.4716C41.9908 94.4686 40.7787 94.9676 39.3537 94.9676H32.0807V128.045H0V29.874Z" fill="white"/>
<path d="M183.007 287.238H199.691C201.116 287.238 202.328 286.739 203.327 285.742L220.436 266.753C221.288 265.617 222.574 265.045 224.286 265.045H253.368C258.504 265.045 263.278 265.866 267.701 267.5C272.124 269.134 275.974 271.452 279.249 274.433C282.525 277.424 285.097 280.979 286.948 285.105C288.799 289.232 289.733 293.857 289.733 298.971V319.032C289.733 324.017 288.947 328.568 287.383 332.686C285.81 336.812 283.571 340.366 280.647 343.357C277.723 346.349 274.299 348.73 270.376 350.503C266.452 352.285 262.14 353.319 257.44 353.596L268.136 365.763C268.997 366.898 270.274 367.471 271.986 367.471H290.807V393.08H260.225C258.513 393.08 257.227 392.517 256.376 391.372L224.721 355.313C223.86 354.177 222.648 353.605 221.084 353.605H184.081V393.08H152V286.656L183.017 287.247L183.007 287.238ZM175.031 327.996H246.521C249.945 327.996 252.647 326.962 254.654 324.903C256.653 322.844 257.643 320.103 257.643 316.687V301.325C257.643 298.057 256.681 295.454 254.756 293.534C252.832 291.614 250.231 290.654 246.947 290.654H217.642C215.93 290.654 214.644 291.226 213.793 292.361L196.683 311.351C195.684 312.348 194.472 312.847 193.047 312.847H184.062V345.499L175.022 328.005L175.031 327.996Z" fill="white"/>
<path d="M0 374.045H88.543C95.39 374.045 101.664 375.152 107.364 377.35C113.064 379.556 117.913 382.649 121.91 386.628C125.898 390.616 128.998 395.453 131.209 401.14C133.421 406.827 134.522 413.086 134.522 419.917V456.189C134.522 463.02 133.421 469.279 131.209 474.966C128.998 480.653 125.898 485.5 121.91 489.478C117.913 493.467 113.064 496.559 107.364 498.756C101.655 500.963 95.39 502.061 88.543 502.061H0V374.045ZM43.8409 476.471H80.632C87.044 476.471 92.217 474.514 96.14 470.599C100.063 466.685 102.025 461.525 102.025 455.127V420.988C102.025 414.591 100.063 409.43 96.14 405.516C92.217 401.601 87.053 399.654 80.632 399.654H31.655V476.914L43.85 476.471H43.8409Z" fill="white"/>
<path d="M105.402 187.009C114.406 187.009 121.651 189.751 127.147 195.235C132.644 200.728 135.392 207.956 135.392 216.929V285.116C135.392 294.098 132.644 301.327 127.147 306.81C121.642 312.294 114.396 315.036 105.402 315.036H29.989C20.995 315.036 13.741 312.294 8.24399 306.81C2.74799 301.327 0 294.089 0 285.116V209.23H26.565C27.99 209.23 29.203 208.732 30.211 207.735L47.348 188.708C48.199 187.572 49.485 187 51.207 187H105.412L105.402 187.009ZM32.136 278.709C32.136 281.986 33.098 284.589 35.032 286.51C36.957 288.43 39.566 289.39 42.851 289.39H92.559C95.844 289.39 98.453 288.43 100.378 286.51C102.303 284.589 103.274 281.986 103.274 278.709V223.346C103.274 220.068 102.312 217.465 100.378 215.545C98.453 213.624 95.844 212.655 92.559 212.655H41.778L32.136 223.346V278.709ZM41.556 148.956C41.556 147.534 42.018 146.362 42.953 145.429C43.878 144.506 45.127 144.045 46.7 144.045H56.129C57.554 144.045 58.729 144.506 59.664 145.429C60.589 146.362 61.052 147.534 61.052 148.956V160.496C61.052 162.065 60.589 163.274 59.664 164.133C58.729 164.992 57.554 165.416 56.129 165.416H46.7C45.127 165.416 43.878 164.992 42.953 164.133C42.018 163.284 41.556 162.074 41.556 160.496V148.956ZM74.552 148.956C74.552 147.534 75.015 146.362 75.94 145.429C76.866 144.506 78.115 144.045 79.688 144.045H89.117C90.542 144.045 91.726 144.506 92.651 145.429C93.577 146.362 94.049 147.534 94.049 148.956V160.496C94.049 162.065 93.586 163.274 92.651 164.133C91.726 164.992 90.542 165.416 89.117 165.416H79.688C78.115 165.416 76.866 164.992 75.94 164.133C75.015 163.284 74.552 162.074 74.552 160.496V148.956Z" fill="white"/>
<path d="M184.081 51.0446H152V71.1606H184.081V51.0446Z" fill="white"/>
<path d="M152.148 81.3248L152 186.401L159.884 186.613C161.707 186.66 163.483 186.041 164.862 184.878L181.416 169.202C183.109 167.771 184.09 165.685 184.09 163.497L184.238 81.3248H152.148Z" fill="white"/>
</svg>
